<?xml version="1.0" standalone="no"?><!DOCTYPE svg PUBLIC "-//W3C//DTD SVG 1.1//EN" "http://www.w3.org/Graphics/SVG/1.1/DTD/svg11.dtd"><svg class="icon" width="200px" height="200.00px" viewBox="0 0 1024 1024" version="1.1" xmlns="http://www.w3.org/2000/svg"><path d="M512 96c-99.008 0-175.744 146.496-189.504 350.016 17.76 18.88 38.624 37.6 61.76 55.872 0.256-21.248 1.504-41.504 3.232-61.376 18.624-12.896 42.016-28.64 60.512-39.36 85.12-49.152 172.736-81.536 246.624-91.136a317.888 317.888 0 0 1 40.512-2.752c41.504 0 70.88 9.984 81.728 28.736 9.76 16.992 5.376 44-10.976 75.616 16.736 15.52 32.64 31.264 46.72 47.136C888.64 399.136 896 344.96 872.288 304c-28.256-48.864-94.144-69.376-185.76-57.504-82.112 10.624-178.112 45.888-270.496 99.264-5.888 3.36-11.36 7.104-17.12 10.752C421.888 238.08 468.64 160 512 160c20.256 0 41.28 17.28 60.256 47.264 21.76-6.752 43.232-12.64 64.128-17.024C603.264 130.88 560.224 96 512 96zM295.008 243.616C225.6 242.368 175.36 263.136 151.744 304c-25.728 44.48-15.008 104.256 29.248 169.888 4 6.112 8.384 12.608 13.888 19.744 50.24 65.728 128.736 131.232 221.12 184.64 5.888 3.36 12 6.368 18.016 9.728-36.64 12.64-72.128 21.76-104.768 26.016-62.4 8.096-108-1.632-121.984-26.016-9.888-16.992-5.504-44 10.88-75.616a754.624 754.624 0 0 1-46.88-47.008C135.36 624.896 128 678.976 151.744 720c23.008 39.872 71.008 60.864 137.504 60.864 15.136 0 31.36-1.12 48.256-3.36 9.76-1.28 19.52-2.88 29.504-4.864l7.008-1.504c0.48 0 0.864-0.128 1.344-0.256 17.024-3.616 35.776-8.64 57.28-15.36l21.12-6.528c31.36-10.752 63.488-24.128 95.616-39.744 7.008-23.264 13.248-50.368 17.984-81.6-18.496 10.336-37.12 19.712-55.616 28.48-21.376-10.016-42.88-21.12-63.744-33.28-85.248-49.216-157.12-108.832-202.24-168-38.272-50.112-52.64-94.464-38.496-118.848 9.6-16.736 35.104-26.24 70.24-28 4.992-22.624 10.752-44.128 17.504-64.384z m368.736 137.12c-25.248 5.888-52 14.528-79.36 25.376 18.112 10.752 35.36 22.272 52.128 33.76 1.984 23.264 3.488 47.008 3.488 72.128 0 188.736-59.36 332.736-116.48 350.112-3.904 1.28-7.904 1.888-11.52 1.888-20.256 0-41.28-17.12-60.256-47.36-21.76 6.848-43.232 12.736-64.128 17.12C420.736 893.12 463.776 928 512 928c6.4 0 12.48-0.64 18.496-1.888C630.624 907.136 704 735.616 704 512c0-6.88-0.512-13.504-0.64-20.384 29.28 25.376 55.04 51.52 75.008 77.504 38.144 50.144 52.48 94.496 38.496 118.88-9.856 16.864-34.976 26.624-70.368 28.384-4.992 22.368-10.624 44-17.376 64.128 1.76 0 3.872 0.352 5.632 0.352 66.496 0 114.496-20.992 137.504-60.864 28.256-48.864 12.992-116.256-43.136-189.632-39.744-52-97.376-103.744-165.376-149.632zM512 448a63.968 63.968 0 1 0 0 128 63.968 63.968 0 1 0 0-128z" /></svg>