<svg xmlns="http://www.w3.org/2000/svg" xmlns:xlink="http://www.w3.org/1999/xlink" fill="none" version="1.1" width="200" height="200" viewBox="0 0 200 200"><defs><clipPath id="master_svg0_177_378"><rect x="0" y="0" width="200" height="200" rx="0"/></clipPath></defs><g clip-path="url(#master_svg0_177_378)"><g><path d="M170.80046833842994,75.21668479003907C152.60846833842993,67.46668479003907,128.16646833842992,62.46668479003906,102.05046833842992,61.09168479003906C97.88336833842993,60.84168479003906,93.82496833842993,60.75838479003906,89.96666833842993,60.75838479003906C109.28346833842993,37.17498479003906,129.98346833842993,21.34168479003906,143.60846833842993,20.84168479003906C146.29146833842992,20.733284790039065,148.56646833842993,21.299984790039062,150.38346833842994,22.474984790039063C156.26646833842992,26.291684790039064,157.92546833842994,37.20838479003906,154.92546833842994,52.391684790039065C154.59146833842993,54.47498479003906,155.92546833842994,56.499984790039065,157.92546833842994,56.891684790039065C160.00846833842994,57.30828479003906,162.00846833842994,55.97498479003906,162.42546833842994,53.891684790039065C166.17546833842994,34.891684790039065,163.42546833842994,21.84168479003906,154.59146833842993,16.075004790039063C151.42546833842994,14.008334790039061,147.59146833842993,13.033334790039063,143.34146833842993,13.191664790039063C126.25846833842992,13.833334790039062,102.17546833842992,32.358284790039065,80.09166833842993,60.85838479003906C70.47496833842993,61.14998479003906,61.42496833842993,61.94168479003906,53.15836833842993,63.249984790039065C47.77496833842993,39.10838479003906,49.90836833842993,21.774984790039063,58.108368338429926,17.608334790039063C59.258368338429925,17.000004790039064,60.483368338429926,16.691674790039063,61.91666833842993,16.575004790039063C67.72496833842993,16.125004790039064,75.74996833842992,19.866684790039063,84.49996833842992,27.15838479003906C86.11666833842993,28.491684790039063,88.54996833842993,28.324984790039064,89.88336833842993,26.65838479003906C91.22976833842993,25.036084790039062,91.00586833842993,22.62938479003906,89.38336833842993,21.283384790039065C78.88336833842993,12.583334790039062,69.19996833842993,8.333332790039062,61.28336833842993,8.916666990039063C58.95796833842993,9.105003790039062,56.688368338429925,9.726814790039063,54.591668338429926,10.750004790039062C44.67496833842993,15.808334790039062,40.67496833842993,30.14168479003906,43.17496833842993,51.06668479003906C43.758368338429925,55.39998479003906,44.508368338429925,59.916684790039064,45.591668338429926,64.56668479003906C18.249968338429927,70.03328479003906,0.8333333384299279,80.98328479003906,0.08333343842992783,94.76668479003906C-0.41666666157007215,104.51668479003906,7.291668338429928,113.79978479003907,22.41666833842993,121.61678479003906C24.316968338429927,122.76978479003907,26.79626833842993,122.06978479003907,27.813468338429928,120.09378479003907C28.830668338429927,118.11778479003907,27.95926833842993,115.69278479003906,25.91666833842993,114.81678479003907C13.833368338429928,108.59998479003906,7.333338338429928,101.58338479003906,7.724998338429928,95.16668479003906C8.141668338429929,86.16668479003906,22.49166833842993,76.91668479003906,47.39166833842993,71.99998479003906C49.64166833842993,80.28328479003906,52.55836833842993,88.93328479003907,56.14166833842993,97.74998479003906C47.65836833842993,113.48378479003907,41.508368338429925,128.97478479003905,38.33336833842993,142.74978479003906C33.66666833842993,163.29178479003906,36.16666833842993,177.91678479003906,45.49996833842993,183.98378479003907C48.49996833842993,185.93378479003906,51.99996833842993,186.89978479003906,55.89166833842993,186.89978479003906C63.68336833842993,186.89978479003906,73.11666833842993,183.06678479003907,83.78336833842992,175.46678479003907C85.60966833842993,174.28678479003906,86.08316833842993,171.82278479003907,84.82396833842992,170.04978479003907C83.56476833842993,168.27778479003905,81.08156833842993,167.91378479003907,79.36666833842993,169.24978479003906C66.49996833842992,178.44178479003907,55.66666833842993,181.51678479003905,49.68336833842993,177.60878479003907C43.349968338429925,173.48378479003907,41.966668338429926,161.41678479003906,45.849968338429925,144.47478479003905C48.51666833842993,132.92478479003907,53.40836833842993,120.05878479003906,60.08336833842993,106.80838479003906C61.74996833842993,110.45878479003906,63.49996833842993,114.10878479003907,65.33336833842993,117.74978479003906C77.20836833842993,141.04978479003907,91.74996833842992,161.30878479003906,106.25046833842993,174.79178479003906C117.80046833842992,185.54178479003906,128.53346833842994,191.14978479003906,137.37546833842993,191.14978479003906C140.29146833842992,191.14978479003906,143.04146833842992,190.52478479003906,145.50846833842994,189.29178479003906C155.05046833842994,184.41678479003906,159.17546833842994,170.87478479003906,157.15846833842994,151.16678479003906C155.29146833842992,132.72478479003905,148.3254683384299,110.24978479003906,137.54146833842992,87.83338479003906C136.66746833842993,85.85848479003906,134.33546833842993,84.99528479003907,132.38546833842992,85.92528479003906C130.43646833842993,86.85528479003906,129.63946833842994,89.21128479003906,130.62546833842993,91.13338479003906C153.04146833842992,137.81678479003907,154.62546833842993,176.04978479003907,142.04146833842992,182.46678479003907C128.79146833842992,189.24178479003905,96.84166833842993,162.84178479003907,72.12496833842992,114.29978479003907C69.29166833842993,108.84168479003907,66.81666833842993,103.46668479003907,64.62496833842992,98.21668479003907C67.45836833842993,93.15008479003906,70.45836833842993,88.05008479003907,73.74996833842992,82.96668479003907C77.04166833842993,77.93338479003906,80.46666833842993,73.06668479003906,83.94996833842993,68.42508479003907L87.23336833842993,68.42508479003907C91.73336833842993,68.42508479003907,96.61666833842993,68.50838479003906,101.68346833842993,68.82508479003906C156.10046833842992,71.68338479003907,193.14146833842992,90.15838479003907,192.38346833842994,104.94168479003906C192.05046833842994,111.31678479003907,184.68346833842992,117.75878479003906,172.17546833842994,122.60878479003907C170.21946833842992,123.39678479003906,169.25546833842992,125.60578479003907,170.00846833842994,127.57478479003906C170.75746833842993,129.55478479003907,172.98246833842992,130.53778479003907,174.9504683384299,129.75878479003904C190.8254683384299,123.59178479003906,199.53346833842994,115.12478479003906,200.03346833842994,105.34168479003907C200.61646833842994,94.25838479003906,190.28346833842994,83.59168479003907,170.86646833842994,75.34168479003907L170.86646833842994,75.25838479003906L170.80046833842994,75.21668479003907ZM67.33336833842993,78.74998479003906C65.08336833842993,82.20838479003906,62.99996833842993,85.64168479003906,60.966668338429926,89.11668479003906C58.65636833842993,83.06658479003906,56.64566833842993,76.90628479003907,54.94166833842993,70.65828479003906C60.883368338429925,69.74168479003906,67.31666833842993,69.07498479003905,74.19166833842993,68.65828479003906C71.85836833842993,71.90828479003906,69.57496833842993,75.27498479003906,67.35836833842993,78.74168479003906L67.35836833842993,78.65828479003906L67.33336833842993,78.74998479003906Z" fill="#000000" fill-opacity="1"/></g><g><path d="M111.5000282470703,99.99996412353515Q111.5000282470703,100.28126412353515,111.48622824707031,100.56226412353516Q111.47242824707031,100.84316412353516,111.44482824707032,101.12306412353516Q111.41722824707031,101.40306412353516,111.3759282470703,101.68126412353516Q111.33472824707032,101.95956412353516,111.27982824707031,102.23536412353516Q111.22492824707031,102.51126412353516,111.15662824707032,102.78416412353516Q111.0882282470703,103.05696412353515,111.00662824707031,103.32616412353515Q110.92492824707031,103.59536412353515,110.83022824707031,103.86016412353516Q110.73542824707032,104.12506412353515,110.62772824707031,104.38486412353515Q110.52012824707032,104.64476412353515,110.39982824707032,104.89906412353515Q110.27962824707032,105.15336412353516,110.14702824707031,105.40146412353516Q110.01442824707031,105.64946412353515,109.86982824707032,105.89076412353515Q109.7252282470703,106.13206412353516,109.56892824707032,106.36586412353516Q109.41262824707032,106.59976412353515,109.24502824707031,106.82576412353515Q109.07752824707032,107.05166412353516,108.8990282470703,107.26906412353516Q108.72062824707031,107.48656412353516,108.5317282470703,107.69496412353516Q108.34282824707032,107.90336412353516,108.1439282470703,108.10226412353515Q107.94502824707031,108.30116412353516,107.73662824707031,108.49006412353515Q107.52822824707032,108.67896412353515,107.31072824707032,108.85736412353515Q107.09332824707032,109.03586412353516,106.8673282470703,109.20346412353516Q106.64142824707031,109.37096412353516,106.40752824707032,109.52726412353516Q106.17372824707031,109.68356412353515,105.9324282470703,109.82816412353516Q105.69112824707031,109.97276412353516,105.44302824707032,110.10536412353515Q105.19502824707031,110.23796412353516,104.94072824707031,110.35816412353516Q104.68642824707031,110.47846412353516,104.42652824707031,110.58616412353516Q104.16672824707031,110.69376412353516,103.90182824707031,110.78856412353515Q103.6370282470703,110.88326412353516,103.3678282470703,110.96496412353515Q103.09862824707031,111.04656412353515,102.82582824707032,111.11496412353516Q102.55292824707031,111.18326412353515,102.27702824707032,111.23816412353516Q102.00122824707032,111.29306412353516,101.72292824707031,111.33436412353515Q101.44472824707032,111.37556412353516,101.16472824707031,111.40316412353516Q100.88482824707032,111.43076412353516,100.60392824707031,111.44456412353516Q100.32292824707031,111.45836412353515,100.0416282470703,111.45836412353515Q99.7603282470703,111.45836412353515,99.47942824707032,111.44456412353516Q99.19842824707031,111.43076412353516,98.91852824707031,111.40316412353516Q98.63862824707032,111.37556412353516,98.36036824707031,111.33436412353515Q98.08212824707032,111.29306412353516,97.80624824707031,111.23816412353516Q97.53035824707031,111.18326412353515,97.25750824707032,111.11496412353516Q96.98464824707031,111.04656412353515,96.71547824707031,110.96496412353515Q96.44629824707032,110.88326412353516,96.18145824707031,110.78856412353515Q95.91661824707032,110.69376412353516,95.65673824707031,110.58616412353516Q95.39686824707032,110.47846412353516,95.14258824707031,110.35816412353516Q94.88830824707031,110.23796412353516,94.64023824707031,110.10536412353515Q94.39215824707031,109.97276412353516,94.15089824707032,109.82816412353516Q93.90962824707032,109.68356412353515,93.67574824707032,109.52726412353516Q93.44186824707032,109.37096412353516,93.21593824707031,109.20346412353516Q92.98999824707032,109.03586412353516,92.77256824707031,108.85736412353515Q92.55512824707031,108.67896412353515,92.34670824707031,108.49006412353515Q92.1382882470703,108.30116412353516,91.93938824707031,108.10226412353515Q91.74048824707032,107.90336412353516,91.55158824707031,107.69496412353516Q91.36268824707031,107.48656412353516,91.18424824707031,107.26906412353516Q91.00579824707032,107.05166412353516,90.83823824707031,106.82576412353515Q90.67066824707031,106.59976412353515,90.51439824707032,106.36586412353516Q90.35812824707031,106.13206412353516,90.21351824707031,105.89076412353515Q90.06890824707031,105.64946412353515,89.93630824707031,105.40146412353516Q89.80370824707032,105.15336412353516,89.68344824707032,104.89906412353515Q89.56317824707031,104.64476412353515,89.45553424707032,104.38486412353515Q89.34789124707031,104.12506412353515,89.25312824707031,103.86016412353516Q89.15836624707032,103.59536412353515,89.07671224707032,103.32616412353515Q88.99505924707032,103.05696412353515,88.92671224707031,102.78416412353516Q88.85836524707031,102.51126412353516,88.80348924707032,102.23536412353516Q88.74861324707031,101.95956412353516,88.7073402470703,101.68126412353516Q88.66606654707032,101.40306412353516,88.63849564707031,101.12306412353516Q88.61092474707031,100.84316412353516,88.59712264707031,100.56226412353516Q88.58332061768031,100.28126412353515,88.58332061768031,99.99996412353515Q88.58332061768031,99.71866412353515,88.59712264707031,99.43776412353516Q88.61092474707031,99.15686412353516,88.63849564707031,98.87686412353516Q88.66606654707032,98.59696412353516,88.7073402470703,98.31871412353516Q88.74861324707031,98.04047412353516,88.80348924707032,97.76459412353516Q88.85836524707031,97.48870412353516,88.92671224707031,97.21585412353515Q88.99505924707032,96.94299412353516,89.07671224707032,96.67382412353516Q89.15836524707031,96.40464412353515,89.25312824707031,96.13980412353516Q89.34789124707031,95.87495412353516,89.45553424707032,95.61508412353515Q89.56317824707031,95.35520412353516,89.68344824707032,95.10092412353515Q89.80370824707032,94.84665412353516,89.93630824707031,94.59857412353516Q90.06890824707031,94.35050412353516,90.21351824707031,94.10923412353516Q90.35812824707031,93.86797412353516,90.51439824707032,93.63408412353516Q90.67066824707031,93.40020412353516,90.83823824707031,93.17427412353516Q91.00579824707032,92.94834412353515,91.18423824707031,92.73090412353515Q91.36268824707031,92.51347412353516,91.55158824707031,92.30505412353516Q91.74048824707032,92.09663412353515,91.93938824707031,91.89773412353516Q92.1382882470703,91.69883412353515,92.34670824707031,91.50993412353516Q92.55512824707031,91.32103412353516,92.77256824707031,91.14258412353516Q92.98999824707032,90.96414412353516,93.21593824707031,90.79657412353515Q93.44186824707032,90.62901412353516,93.67574824707032,90.47274412353515Q93.90962824707032,90.31646412353516,94.15089824707032,90.17185412353516Q94.39215824707031,90.02724412353516,94.64023824707031,89.89465412353516Q94.88830824707031,89.76205412353515,95.14258824707031,89.64178412353516Q95.39686824707032,89.52152112353515,95.65673824707031,89.41387812353516Q95.91661824707032,89.30623412353516,96.18145824707031,89.21147212353516Q96.44629824707032,89.11670912353516,96.71547824707031,89.03505612353516Q96.98464824707031,88.95340312353515,97.25750824707032,88.88505612353515Q97.53035824707031,88.81670912353516,97.80624824707031,88.76183312353515Q98.08212824707032,88.70695612353515,98.36036824707031,88.66568312353516Q98.63862824707032,88.62441002353516,98.91852824707031,88.59683912353516Q99.19842824707031,88.56926822353516,99.47942824707032,88.55546622353516Q99.7603282470703,88.54166412353516,100.0416282470703,88.54166412353516Q100.32292824707031,88.54166412353516,100.60392824707031,88.55546622353516Q100.88482824707032,88.56926822353516,101.16472824707031,88.59683912353516Q101.44472824707032,88.62441002353516,101.72292824707031,88.66568312353516Q102.00122824707032,88.70695612353515,102.27702824707032,88.76183312353515Q102.55292824707031,88.81670912353516,102.82582824707032,88.88505612353515Q103.09862824707031,88.95340312353515,103.3678282470703,89.03505612353516Q103.6370282470703,89.11670912353516,103.90182824707031,89.21147212353516Q104.16672824707031,89.30623412353516,104.42652824707031,89.41387812353516Q104.68642824707031,89.52152112353515,104.94072824707031,89.64178412353516Q105.19502824707031,89.76205412353515,105.44312824707032,89.89465412353516Q105.69112824707031,90.02724412353516,105.9324282470703,90.17185412353516Q106.17372824707031,90.31646412353516,106.40752824707032,90.47274412353515Q106.64142824707031,90.62901412353516,106.8673282470703,90.79657412353515Q107.09332824707032,90.96414412353516,107.31072824707032,91.14258412353516Q107.52822824707032,91.32103412353516,107.73662824707031,91.50993412353516Q107.94502824707031,91.69883412353515,108.1439282470703,91.89773412353516Q108.34282824707032,92.09663412353515,108.5317282470703,92.30505412353516Q108.72062824707031,92.51347412353516,108.8990282470703,92.73090412353515Q109.07752824707032,92.94834412353515,109.24502824707031,93.17427412353516Q109.41262824707032,93.40020412353516,109.56892824707032,93.63408412353516Q109.7252282470703,93.86797412353516,109.86982824707032,94.10923412353516Q110.01442824707031,94.35050412353516,110.14702824707031,94.59857412353516Q110.27962824707032,94.84665412353516,110.39982824707032,95.10092412353515Q110.52012824707032,95.35520412353516,110.62772824707031,95.61508412353515Q110.73542824707032,95.87495412353516,110.83022824707031,96.13980412353516Q110.92492824707031,96.40464412353515,111.00662824707031,96.67382412353516Q111.0882282470703,96.94299412353516,111.15662824707032,97.21585412353515Q111.22492824707031,97.48870412353516,111.27982824707031,97.76459412353516Q111.33472824707032,98.04047412353516,111.3759282470703,98.31871412353516Q111.41722824707031,98.59696412353516,111.44482824707032,98.87686412353516Q111.47242824707031,99.15686412353516,111.48622824707031,99.43776412353516Q111.5000282470703,99.71866412353515,111.5000282470703,99.99996412353515Z" fill="#000000" fill-opacity="1"/></g><g><path d="M106,160Q106,160.19639,105.9904,160.39254Q105.9807,160.58868999999999,105.9615,160.78414Q105.9422,160.97958,105.9134,161.17384Q105.8846,161.36811,105.8463,161.56072Q105.80799999999999,161.75334,105.7602,161.94384Q105.7125,162.1343,105.6555,162.3223Q105.5985,162.5102,105.53229999999999,162.6951Q105.4662,162.88,105.391,163.0615Q105.3159,163.2429,105.2319,163.4204Q105.14789999999999,163.598,105.0554,163.7712Q104.9628,163.9444,104.8618,164.1128Q104.76089999999999,164.2813,104.6518,164.4446Q104.5426,164.6079,104.4257,164.7656Q104.3087,164.9233,104.1841,165.0751Q104.0595,165.227,103.9276,165.3725Q103.7957,165.518,103.65690000000001,165.6569Q103.518,165.7957,103.3725,165.9276Q103.227,166.0595,103.0751,166.1841Q102.9233,166.3087,102.7656,166.4257Q102.6078,166.5426,102.4446,166.6518Q102.2813,166.7609,102.1128,166.8618Q101.9444,166.9628,101.7712,167.0554Q101.598,167.1479,101.4204,167.2319Q101.2429,167.3159,101.0615,167.391Q100.88,167.46620000000001,100.6951,167.5324Q100.5102,167.5985,100.3223,167.6555Q100.1343,167.7125,99.94384,167.7602Q99.75333,167.808,99.56072,167.84629999999999Q99.3681,167.8846,99.17384,167.9134Q98.97958,167.9422,98.78413,167.9615Q98.58869,167.9807,98.39254,167.9904Q98.19639,168,98,168Q97.80361,168,97.60746,167.9904Q97.4113,167.9807,97.21586,167.9615Q97.02042,167.9422,96.82615,167.9134Q96.63189,167.8846,96.43927,167.84629999999999Q96.24666,167.808,96.05615,167.7602Q95.86565,167.7125,95.67772,167.6555Q95.48979,167.5985,95.30488,167.5324Q95.11997,167.46620000000001,94.93853,167.391Q94.75709,167.3159,94.57955,167.2319Q94.40202,167.1479,94.22882,167.0554Q94.05562,166.9628,93.88717,166.8618Q93.71872,166.7609,93.55543,166.6518Q93.39214,166.5426,93.2344,166.4257Q93.07666,166.3087,92.92485,166.1841Q92.77304,166.0595,92.62752,165.9276Q92.48201,165.7957,92.34314,165.6569Q92.20427,165.518,92.07239,165.3725Q91.9405,165.227,91.81591,165.0751Q91.69132,164.9233,91.57433,164.7656Q91.45735,164.6079,91.34824,164.4446Q91.23913,164.2813,91.13817,164.1128Q91.0372,163.9444,90.944625,163.7712Q90.852048,163.598,90.76808,163.4204Q90.684113,163.2429,90.608958,163.0615Q90.533804,162.88,90.467642,162.6951Q90.401481,162.5102,90.344472,162.3223Q90.287463,162.1343,90.239745,161.94384Q90.192026,161.75334,90.153712,161.56072Q90.115399,161.36811,90.0865826,161.17384Q90.0577664,160.97958,90.0385169,160.78414Q90.0192674,160.58868999999999,90.00963103,160.39254Q89.9999946733,160.19639,89.9999946733,160Q89.9999946733,159.80361,90.00963102,159.60746Q90.0192674,159.41131000000001,90.0385169,159.21586Q90.0577663,159.02042,90.0865826,158.82616Q90.115399,158.63189,90.153712,158.43928Q90.192026,158.24666,90.239745,158.05616Q90.287463,157.86565,90.344472,157.67772Q90.401481,157.48979,90.467642,157.30488Q90.533804,157.11997,90.608958,156.93853000000001Q90.684113,156.75709,90.76808,156.57956Q90.852048,156.40203,90.944625,156.22883Q91.0372,156.05563,91.13817,155.88718Q91.23913,155.71873,91.34824,155.55544Q91.45735,155.39215,91.57433,155.23441Q91.69132,155.07666,91.81591,154.92485Q91.9405,154.77304,92.07239,154.62753Q92.20427,154.48201,92.34314,154.34315Q92.48201,154.20428,92.62752,154.07239Q92.77304,153.9405,92.92485,153.81592Q93.07666,153.69133,93.2344,153.57434Q93.39214,153.45735,93.55543,153.34824Q93.71872,153.23914,93.88717,153.13817Q94.05562,153.03721,94.22882,152.94463Q94.40202,152.852053,94.57955,152.768086Q94.75709,152.684118,94.93853,152.608964Q95.11997,152.533809,95.30488,152.467647Q95.48979,152.401486,95.67772,152.344477Q95.86565,152.287469,96.05615,152.23975Q96.24666,152.192031,96.43927,152.153718Q96.63189,152.115404,96.82615,152.0865879Q97.02042,152.0577717,97.21586,152.0385222Q97.4113,152.0192727,97.60745,152.00963635Q97.80361,152,98,152Q98.19639,152,98.39254,152.00963635Q98.58869,152.0192727,98.78413,152.0385222Q98.97958,152.0577717,99.17384,152.0865879Q99.3681,152.115404,99.56072,152.153718Q99.75333,152.192031,99.94384,152.23975Q100.1343,152.287469,100.3223,152.344477Q100.5102,152.401486,100.6951,152.467647Q100.88,152.533809,101.0615,152.608964Q101.2429,152.684118,101.4204,152.768086Q101.598,152.852053,101.7712,152.94463Q101.9444,153.03721,102.1128,153.13817Q102.2813,153.23914,102.4446,153.34824Q102.6078,153.45735,102.7656,153.57434Q102.9233,153.69133,103.0751,153.81592Q103.227,153.9405,103.3725,154.07239Q103.518,154.20428,103.65690000000001,154.34315Q103.7957,154.48201,103.9276,154.62753Q104.0595,154.77304,104.1841,154.92485Q104.3087,155.07666,104.4257,155.23441Q104.5426,155.39215,104.6518,155.55544Q104.76089999999999,155.71873,104.8618,155.88718Q104.9628,156.05563,105.0554,156.22883Q105.14789999999999,156.40203,105.2319,156.57956Q105.3159,156.75709,105.391,156.93853000000001Q105.4662,157.11997,105.5324,157.30488Q105.5985,157.48979,105.6555,157.67772Q105.7125,157.86565,105.7602,158.05616Q105.80799999999999,158.24666,105.8463,158.43928Q105.8846,158.63189,105.9134,158.82616Q105.9422,159.02042,105.9615,159.21586Q105.9807,159.41131000000001,105.9904,159.60746Q106,159.80361,106,160Z" fill="#A2A2A2" fill-opacity="1"/><path d="M101.8931,150.78667Q100.0332,150,98,150Q95.96683,150,94.10693,150.78667Q92.312,151.545864,90.928929,152.928933Q89.54586,154.312,88.78667,156.10694Q88,157.96684,88,160Q88,162.0332,88.78667,163.8931Q89.545859,165.688,90.928929,167.0711Q92.312,168.4541,94.10693,169.2133Q95.96683,170,98,170Q100.0332,170,101.8931,169.2133Q103.688,168.4541,105.0711,167.0711Q106.4541,165.688,107.2133,163.8931Q108,162.0332,108,160Q108,157.96684,107.2133,156.10694Q106.4541,154.312,105.0711,152.928932Q103.688,151.545865,101.8931,150.78667ZM93.75736,155.75736Q95.51472,154,98,154Q100.4853,154,102.2426,155.75736Q104,157.51472,104,160Q104,162.4853,102.2426,164.2426Q100.4853,166,98,166Q95.51471,166,93.75736,164.2426Q92,162.4853,92,160Q92,157.51472,93.75736,155.75736Z" fill-rule="evenodd" fill="#000000" fill-opacity="1"/></g></g></svg>