<?xml version="1.0" standalone="no"?><!DOCTYPE svg PUBLIC "-//W3C//DTD SVG 1.1//EN" "http://www.w3.org/Graphics/SVG/1.1/DTD/svg11.dtd"><svg class="icon" width="200px" height="200.00px" viewBox="0 0 1024 1024" version="1.1" xmlns="http://www.w3.org/2000/svg"><path d="M579.988896 512c0 37.553426-30.455382 68.005766-67.997656 68.005766-37.552412 0-67.997655-30.453354-67.997655-68.005766 0-37.543287 30.446257-67.997655 67.997655-67.997655 37.542273 0 67.997655 30.454368 67.997656 67.997655z" fill="#43525b" /><path d="M189.015557 410.008586c0 28.149861-22.863588 50.996214-51.013449 50.996214-28.150875 0-50.996214-22.845339-50.996214-50.996214 0-28.16 22.845339-51.004325 50.996214-51.004325 28.149861 0 51.01345 22.844325 51.013449 51.004325zM664.942369 885.961758c0 28.18636-22.818978 51.023588-50.96884 51.023589-28.169125 0-51.005339-22.837228-51.005338-51.023589 0-28.131612 22.836214-50.987089 51.005338-50.987089 28.149861 0 50.967826 22.855477 50.967826 50.987089zM834.975034 240.020531c0 28.149861-22.872713 50.986075-51.004324 50.986075-28.169125 0-51.023588-22.836214-51.023589-50.987089 0-28.168111 22.854463-50.9952 51.023589-50.9952 28.131612 0 51.004325 22.827089 51.004324 50.996214z" fill="#78909C" /><path d="M810.745775 512c111.226677-95.32122 180.58899-193.734717 144.652673-256.028388-16.833141-29.143446-52.974257-43.349671-106.747437-42.680523-10.535034-25.381006-35.54598-43.293909-64.680301-43.293909-37.329362 0-67.652943 29.423271-69.660389 66.251786a946.178028 946.178028 0 0 0-52.992507 16.898028C634.374448 109.209093 583.833458 0 511.99124 0c-71.880745 0-122.430859 109.265869-149.364087 253.259533-138.168016-48.673457-258.080444-59.523802-294.044135 2.731342-16.444832 28.484436-11.35322 65.842186 14.660436 110.909339-9.411675 11.919968-15.264697 26.776079-15.264697 43.109386 0 38.609869 31.411453 70.021323 70.023351 70.021323 11.398844 0 22.008903-3.00103 31.531089-7.850329 13.582701 13.239002 28.002851 26.542891 43.526083 39.875168-26.338091 22.649663-50.401077 45.31859-71.02606 67.61543C68.65703 659.050455 43.257775 724.158606 68.563755 768.010139c16.491469 28.558448 51.554851 42.995834 103.124911 42.995833 27.602376 0 59.952665-4.124388 96.696016-12.450218 29.68282-6.725956 61.409584-16.257267 94.25261-27.777774C389.579644 914.762519 440.118607 1024 511.99124 1024c23.402962 0 57.053022-12.65299 89.43981-69.270051 4.087889 0.74316 8.24979 1.281521 12.541465 1.28152 38.592634 0 69.994962-31.439842 69.994963-70.049711 0-25.605069-13.991287-47.826883-34.578757-60.034788a948.094226 948.094226 0 0 0 12.058868-55.186503c71.517782 25.17722 138.205529 40.321267 190.808713 40.303018 48.979644 0 85.825394-13.044341 103.160396-43.033346C991.336793 705.725592 921.991715 607.32122 810.745775 512zM783.969696 208.051453c17.634091 0 31.978202 14.345125 31.978202 31.969078s-14.344111 31.958939-31.977188 31.958938c-17.653354 0-31.997465-14.334986-31.997466-31.958938s14.344111-31.969077 31.997466-31.969078z m-61.187549 65.368713c11.910844 21.692578 34.728808 36.613576 61.188563 36.613577 34.782543 0 63.508277-25.559446 68.897964-58.837418 36.194851 0.167287 60.666424 8.371453 69.585362 23.811548C943.618393 311.714725 890.719161 394.80979 781.222131 487.547691c-31.290804-25.065695-65.10815-49.67718-100.357069-73.098392-2.656317-42.187786-7.041267-83.725687-13.099089-123.312919 18.897362-6.772594 37.180325-12.560729 55.018202-17.716214zM578.946646 628.00095c-22.370851 12.913552-44.724467 24.917671-66.983794 36.363153-21.962265-11.296444-44.222606-23.225537-66.965544-36.343889-22.305964-12.896317-44.009695-26.273204-65.154789-39.912681A1599.512333 1599.512333 0 0 1 378.050013 512c0-26.12518 0.622511-51.516325 1.792506-76.07002 21.098455-13.59284 42.736285-26.98899 65.154789-39.931944 22.231952-12.839541 44.622067-24.925782 66.965544-36.399652 21.962265 11.315707 44.22362 23.2448 66.984808 36.381402 22.817964 13.174115 44.334131 26.533766 65.181149 39.940056 1.172024 24.555723 1.784396 49.945853 1.784396 76.080158 0 25.679081-0.723897 51.096586-1.968919 76.181545-20.77402 13.360665-42.234424 26.682804-64.996626 39.819405z m62.006749 7.191319c-2.34202 28.874772-5.463699 57.042883-9.384301 84.004499-24.842646-9.903398-50.66975-21.199842-77.334305-33.873109a1609.943952 1609.943952 0 0 0 43.740008-24.359033c14.419137-8.324816 28.763248-16.946693 42.977584-25.772357z m-171.16008 50.057379c-26.309703 12.485703-52.212848 23.784174-77.575603 33.854859-3.845576-26.496253-7.033156-54.517354-9.383288-84.023762 14.167699 8.807414 28.521949 17.46579 43.135747 25.901116 14.419137 8.324816 29.079572 16.388055 43.823144 24.267787zM340.832175 562.13139c-23.820673-16.462067-46.582875-33.22221-67.941893-50.094891 21.349893-16.880792 44.037069-33.621671 67.941893-50.112127-0.547485 16.703366-0.836436 33.42701-0.836436 50.075628 0 16.667881 0.287937 33.407747 0.836436 50.13139z m42.011374-173.296285c2.351145-29.524657 5.546836-57.591382 9.402551-84.106899 24.898408 9.913537 50.809663 21.247493 77.575604 33.975509-14.651311 7.860467-29.293497 15.923707-43.851533 24.332673a1613.443802 1613.443802 0 0 0-43.126622 25.799731z m171.317228-50.14964c26.235691-12.429941 52.211834-23.829798 77.55634-33.919746 3.865853 26.533766 7.061545 54.600491 9.402551 84.135287-14.25185-8.863176-28.651723-17.522566-43.144871-25.883881-14.419137-8.333941-29.061323-16.443818-43.81402-24.33166z m128.971279 123.183145c24.360048 16.796642 47.101972 33.538535 68.118305 50.13139-21.016333 16.583731-43.758257 33.334749-68.136554 50.13139 0.520111-16.611105 0.853671-33.315485 0.853671-50.13139 0-16.667881-0.297061-33.40876-0.835422-50.13139zM511.99124 38.054273c42.355073 0 87.934226 87.153552 113.501782 228.397624-36.939026 14.390749-75.066297 31.364816-113.501782 50.484214-37.924499-18.813212-76.163295-35.805529-113.53017-50.381814C424.019502 125.254463 469.607779 38.054273 511.99124 38.054273zM106.03303 410.0096c0-17.634091 14.344111-31.979216 31.969078-31.979216 17.633077 0 31.987327 14.345125 31.987326 31.978202 0 17.623952-14.35425 31.969077-31.987326 31.969077-17.624966 0-31.969077-14.345125-31.969078-31.969077z m91.539517 36.353014c6.512032-10.628309 10.470147-22.994376 10.470147-36.354028 0-38.610883-31.420578-70.031461-70.040586-70.031461-8.398828 0-16.360681 1.72762-23.830812 4.449837-16.62023-30.026519-21.220119-54.516341-12.625616-69.40895 21.182606-36.715976 119.597117-32.443564 254.671841 16.035232-6.057822 39.549719-10.442772 81.068356-13.109227 123.219643-35.954566 23.793299-69.474851 48.348008-100.356056 73.107517a916.55604 916.55604 0 0 1-45.179691-41.01779z m62.403168 315.068578c-83.771311 18.971374-143.017315 14.307612-158.448285-12.449204-15.459358-26.755802 10.135572-80.399208 68.442741-143.463414 20.959556-22.669941 45.634915-45.765703 72.81958-68.843216 30.852816 24.731121 64.587026 49.202693 100.309418 72.912856 2.656317 42.122899 7.042281 83.613149 13.08084 123.153742-33.640935 12.004119-66.045972 21.851754-96.20328 28.689236z m353.997814 156.527018c-17.634091 0-31.978202-14.344111-31.978202-31.997465 0-17.613814 14.344111-31.958939 31.977188-31.958939 17.615842 0 31.940689 14.345125 31.94069 31.959952 0 17.651327-14.325861 31.997465-31.939676 31.997466z m-1.338297-101.86164c-37.979248 0.74316-68.694178 31.736903-68.694178 69.865188 0 20.623968 9.122725 39.000206 23.357339 51.840761-18.117703 31.123517-37.414527 48.144222-55.307153 48.144222-42.374337 0-87.952475-87.164705-113.511921-228.416888 36.920776-14.363374 75.002424-31.141766 113.632571-50.391952 37.81196 18.766574 75.940246 35.731517 113.213845 50.262178-3.735065 20.530693-8.026741 40.003929-12.691517 58.696491z m309.819818-67.114582c-21.199842 36.679477-119.568729 32.406051-254.596816-16.016982 5.981782-39.130994 10.349497-80.605022 13.005814-123.414305 35.248919-23.430337 69.066265-48.031683 100.357069-73.098392 109.49703 92.737901 162.397275 175.813703 141.233933 212.529679z" fill="#43525B" /></svg>