<svg xmlns="http://www.w3.org/2000/svg" xmlns:xlink="http://www.w3.org/1999/xlink" fill="none" version="1.1" width="200" height="200" viewBox="0 0 200 200"><defs><clipPath id="master_svg0_177_378"><rect x="0" y="0" width="200" height="200" rx="0"/></clipPath></defs><g clip-path="url(#master_svg0_177_378)"><g><path d="M170.8003431494832,75.21668479003907C152.6083431494832,67.46668479003907,128.1663431494832,62.46668479003906,102.0503431494832,61.09168479003906C97.88334314948321,60.84168479003906,93.82504314948321,60.75838479003906,89.9666431494832,60.75838479003906C109.2833431494832,37.17498479003906,135.0003431494832,27.65838479003906,141.5003431494832,27.15838479003906Q148.0003431494832,26.65838479003906,148.0003431494832,27.15838479003906Q152.5003431494832,27.15838479003906,154.5913431494832,31.49998479003906Q157.9253431494832,37.20838479003906,154.9253431494832,52.391684790039065C154.5913431494832,54.47498479003906,155.9253431494832,56.499984790039065,157.9253431494832,56.891684790039065C160.0083431494832,57.308384790039064,162.0083431494832,55.97498479003906,162.4253431494832,53.891684790039065C166.1753431494832,34.891684790039065,163.4253431494832,21.84168479003906,154.5913431494832,16.075004790039063C151.4253431494832,14.008334790039061,147.5913431494832,13.033334790039063,143.3413431494832,13.191674790039063C126.25834314948321,13.833334790039062,102.1753431494832,32.35838479003906,80.0916431494832,60.85838479003906C70.4750431494832,61.14998479003906,61.4250431494832,61.94168479003906,53.1583431494832,63.249984790039065C47.7750431494832,39.10838479003906,54.591643149483204,29.99998479003906,56.1416431494832,27.15838479003906C58.4999431494832,23.499984790039065,61.2833431494832,20.283384790039065,66.3333431494832,20.283384790039065C68.1625431494832,20.283384790039065,71.0869431494832,20.845584790039062,74.1635431494832,22.017684790039063C79.36664314948321,23.999984790039065,80.0916431494832,24.99998479003906,84.5000431494832,27.15838479003906C86.11664314948321,28.491684790039063,88.5500431494832,28.324984790039064,89.88334314948321,26.65838479003906C91.2297431494832,25.036084790039062,91.0059431494832,22.62938479003906,89.38334314948321,21.283384790039065C78.88334314948321,12.583334790039062,69.1999431494832,8.333336790039063,61.2833431494832,8.916670790039063C58.95794314948321,9.105006790039063,56.6883431494832,9.726818790039063,54.591643149483204,10.750004790039062C44.6750431494832,15.808334790039062,40.6750431494832,30.14168479003906,43.1750431494832,51.06668479003906C43.7583431494832,55.39998479003906,44.5083431494832,59.916684790039064,45.591643149483204,64.56668479003906C18.250043149483204,70.03338479003907,0.7499821494832039,80.98328479003906,-0.00001755051679611097,94.76658479003906C-0.500017850516796,104.51658479003906,7.291663149483204,113.79978479003907,22.416643149483203,121.61678479003906C24.316943149483205,122.76978479003907,26.796243149483203,122.06978479003907,27.813443149483202,120.09378479003907C28.830643149483205,118.11778479003907,27.959243149483203,115.69278479003906,25.916643149483203,114.81678479003907C13.833343149483204,108.59998479003906,14.608343149483204,101.18328479003907,14.999943149483205,94.76658479003906C15.416643149483203,85.76658479003906,22.491643149483203,76.91668479003906,47.3916431494832,71.99998479003906C49.6416431494832,80.28338479003907,52.55834314948321,88.93328479003907,56.1416431494832,97.74998479003906C47.6583431494832,113.48378479003907,41.5083431494832,128.97478479003905,38.333343149483206,142.74978479003906C33.66664314948321,163.29178479003906,36.16664314948321,177.91678479003906,45.500043149483204,183.98378479003907C48.500043149483204,185.93378479003906,52.000043149483204,186.89978479003906,55.8916431494832,186.89978479003906C63.68334314948321,186.89978479003906,73.11664314948321,183.06678479003907,83.7833431494832,175.46678479003907C85.6096431494832,174.28678479003906,86.0831431494832,171.82278479003907,84.8239431494832,170.04978479003907C83.56484314948321,168.27778479003905,81.0816431494832,167.91378479003907,79.36664314948321,169.24978479003906C72.3500431494832,173.37478479003906,66.84524314948321,176.02078479003907,63.4999431494832,176.99978479003906C60.083343149483206,177.99978479003906,55.6583431494832,176.99978479003906,53.1583431494832,174.79178479003906C51.04934314948321,172.92878479003906,47.3916431494832,170.04978479003907,45.850043149483206,163.49978479003906C45.4999431494832,160.49978479003906,43.9083431494832,152.94578479003906,45.850043149483206,144.47478479003905C48.5166431494832,132.92478479003907,53.4083431494832,120.05878479003906,60.083343149483206,106.80838479003906C61.750043149483204,110.45878479003906,63.500043149483204,114.10878479003907,65.3333431494832,117.74978479003906C77.2083431494832,141.04978479003907,91.7500431494832,161.30878479003906,106.2503431494832,174.79178479003906C117.8003431494832,185.54178479003906,128.53334314948322,191.14978479003906,137.3753431494832,191.14978479003906C140.2913431494832,191.14978479003906,143.0413431494832,190.52478479003906,145.5083431494832,189.29178479003906C155.0503431494832,184.41678479003906,159.1753431494832,170.87478479003906,157.15834314948322,151.16678479003906C155.2913431494832,132.72478479003905,148.32534314948322,110.24978479003906,137.5413431494832,87.83338479003906C136.6673431494832,85.85848479003906,134.3353431494832,84.99528479003907,132.3853431494832,85.92528479003906C130.4363431494832,86.85528479003906,129.64034314948321,89.21128479003906,130.6253431494832,91.13338479003906C153.0413431494832,137.81678479003907,154.0833431494832,169.04978479003907,141.5003431494832,175.46678479003907C128.2503431494832,182.24178479003905,96.8416431494832,162.84178479003907,72.1250431494832,114.29978479003907C69.2916431494832,108.84168479003907,66.8166431494832,103.46668479003907,64.6250431494832,98.21668479003907C67.4583431494832,93.15008479003906,70.4583431494832,88.05008479003907,73.7500431494832,82.96668479003907C77.0416431494832,77.93338479003906,80.4666431494832,73.06668479003906,83.95004314948321,68.42508479003907L87.2333431494832,68.42508479003907C91.7333431494832,68.42508479003907,96.61664314948321,68.50838479003906,101.6833431494832,68.82508479003906C156.1003431494832,71.68338479003907,185.7583431494832,90.55838479003906,185.0003431494832,105.34168479003907C184.6663431494832,111.71678479003906,184.6833431494832,117.75878479003906,172.1753431494832,122.60878479003907C170.2193431494832,123.39678479003906,169.2553431494832,125.60578479003907,170.0083431494832,127.57478479003906C170.7573431494832,129.55478479003907,172.9823431494832,130.53778479003907,174.95034314948322,129.75878479003904C190.82534314948322,123.59178479003906,199.5003431494832,115.12478479003906,200.0003431494832,105.34168479003907C200.5833431494832,94.25838479003906,190.28334314948322,83.59168479003907,170.8663431494832,75.34168479003907L170.8663431494832,75.25838479003906L170.8003431494832,75.21668479003907ZM67.3333431494832,78.74998479003906C65.0833431494832,82.20838479003906,63.000043149483204,85.64168479003906,60.966643149483204,89.11668479003906C58.6564431494832,83.06658479003906,56.645643149483206,76.90638479003906,54.941643149483205,70.65838479003907C60.8833431494832,69.74168479003906,67.3166431494832,69.07498479003905,74.1916431494832,68.65838479003907C71.8583431494832,71.90838479003907,69.5749431494832,75.27498479003906,67.3583431494832,78.74168479003906L67.3583431494832,78.65838479003907L67.3333431494832,78.74998479003906Z" fill="#FFFFFF" fill-opacity="1"/></g><g><path d="M114.58332824707031,101.54166412353516Q114.58332824707031,101.86076412353516,114.56762824707032,102.17956412353516Q114.55202824707031,102.49826412353515,114.52072824707031,102.81586412353516Q114.48942824707031,103.13346412353516,114.44262824707032,103.44916412353516Q114.39582824707031,103.76486412353516,114.33352824707032,104.07786412353515Q114.27122824707031,104.39086412353515,114.19372824707031,104.70036412353515Q114.11622824707031,105.00996412353516,114.02352824707032,105.31536412353516Q113.93092824707031,105.62076412353515,113.82342824707031,105.92126412353515Q113.71592824707031,106.22166412353516,113.59372824707032,106.51656412353516Q113.47162824707031,106.81136412353516,113.33522824707032,107.09986412353516Q113.1987282470703,107.38836412353515,113.04832824707032,107.66986412353515Q112.89782824707031,107.95126412353515,112.7338282470703,108.22496412353516Q112.56972824707032,108.49876412353515,112.39242824707031,108.76406412353515Q112.21512824707031,109.02946412353515,112.02502824707031,109.28576412353516Q111.83492824707031,109.54206412353516,111.63242824707031,109.78876412353516Q111.43002824707031,110.03546412353515,111.21572824707032,110.27196412353516Q111.00132824707032,110.50836412353516,110.7757282470703,110.73406412353515Q110.55002824707032,110.95976412353515,110.31362824707031,111.17406412353516Q110.0771282470703,111.38836412353515,109.83042824707032,111.59076412353515Q109.58372824707031,111.79326412353515,109.32742824707032,111.98336412353515Q109.0711282470703,112.17346412353515,108.8057282470703,112.35076412353516Q108.54042824707031,112.52806412353516,108.26662824707032,112.69216412353515Q107.99292824707031,112.85616412353515,107.7115282470703,113.00666412353516Q107.43002824707031,113.15706412353515,107.14152824707031,113.29356412353516Q106.85302824707031,113.42996412353516,106.55822824707032,113.55206412353516Q106.26332824707032,113.67426412353515,105.96292824707031,113.78176412353515Q105.66242824707031,113.88926412353516,105.35702824707032,113.98186412353516Q105.05162824707031,114.07456412353515,104.74202824707031,114.15206412353515Q104.43252824707031,114.22966412353516,104.1195282470703,114.29186412353516Q103.80652824707032,114.35416412353516,103.49082824707031,114.40096412353516Q103.17512824707032,114.44776412353515,102.85752824707032,114.47906412353515Q102.5399282470703,114.51036412353515,102.22122824707031,114.52596412353516Q101.90242824707032,114.54166412353516,101.58332824707031,114.54166412353516Q101.2642282470703,114.54166412353516,100.94542824707031,114.52596412353516Q100.62672824707032,114.51036412353515,100.3091282470703,114.47906412353515Q99.9915282470703,114.44776412353515,99.67582824707031,114.40096412353516Q99.3601282470703,114.35416412353516,99.04712824707032,114.29186412353516Q98.73412824707032,114.22966412353516,98.42457824707031,114.15206412353515Q98.1150082470703,114.07456412353515,97.80961824707032,113.98186412353516Q97.50422824707032,113.88926412353516,97.20375824707031,113.78176412353515Q96.90327824707032,113.67426412353515,96.60843824707031,113.55206412353516Q96.31359824707032,113.42996412353516,96.0251082470703,113.29356412353516Q95.73660824707031,113.15706412353515,95.45515824707032,113.00666412353516Q95.17371824707031,112.85616412353515,94.89998824707031,112.69216412353515Q94.62625824707031,112.52806412353516,94.36090824707031,112.35076412353516Q94.09555824707031,112.17346412353515,93.83922824707031,111.98336412353515Q93.58289824707032,111.79326412353515,93.33620824707032,111.59076412353515Q93.08951824707032,111.38836412353515,92.85305824707031,111.17406412353516Q92.61658824707031,110.95976412353515,92.3909282470703,110.73406412353515Q92.16526824707032,110.50836412353516,91.95095824707032,110.27196412353516Q91.73663824707032,110.03546412353515,91.53418824707032,109.78876412353516Q91.33172824707032,109.54206412353516,91.14161824707031,109.28576412353516Q90.95151824707031,109.02946412353515,90.77421824707031,108.76406412353515Q90.5969182470703,108.49876412353515,90.43284824707031,108.22496412353516Q90.26877824707032,107.95126412353515,90.11833824707031,107.66986412353515Q89.96790824707031,107.38836412353515,89.83145824707032,107.09986412353516Q89.69500824707032,106.81136412353516,89.57288624707031,106.51656412353516Q89.45075924707031,106.22166412353516,89.34324724707031,105.92126412353515Q89.23573424707031,105.62076412353515,89.1430952470703,105.31536412353516Q89.05045624707031,105.00996412353516,88.97291324707031,104.70036412353515Q88.89537024707032,104.39086412353515,88.8331112470703,104.07786412353515Q88.77085124707031,103.76486412353516,88.72402524707032,103.44916412353516Q88.67719854707032,103.13346412353516,88.64591814707032,102.81586412353516Q88.61463774707032,102.49826412353515,88.59897864707031,102.17956412353516Q88.58331959117031,101.86076412353516,88.58331959117031,101.54166412353516Q88.58331959117031,101.22256412353515,88.59897864707031,100.90376412353515Q88.61463774707032,100.58506412353516,88.64591814707032,100.26746412353515Q88.67719854707032,99.94986412353515,88.72402524707032,99.63416412353516Q88.77085124707031,99.31846412353515,88.8331112470703,99.00546412353516Q88.89537024707032,98.69246412353516,88.97291324707031,98.38292412353516Q89.05045624707031,98.07335412353515,89.1430952470703,97.76796412353515Q89.23573424707031,97.46257412353515,89.34324724707031,97.16209412353516Q89.45075924707031,96.86162412353515,89.57288624707031,96.56678412353516Q89.69500824707032,96.27194412353515,89.83145824707032,95.98345412353515Q89.96790824707031,95.69495412353515,90.11833824707031,95.41350412353516Q90.26877824707032,95.13205412353516,90.43284824707031,94.85833412353516Q90.5969182470703,94.58460412353516,90.77421824707031,94.31925412353516Q90.95151824707031,94.05390412353516,91.14161824707031,93.79757412353516Q91.33172824707032,93.54124412353515,91.53418824707032,93.29455412353515Q91.73663824707032,93.04786412353516,91.95095824707032,92.81139412353515Q92.16526824707032,92.57493412353516,92.3909282470703,92.34927412353515Q92.61658824707031,92.12361412353516,92.85305824707031,91.90930412353515Q93.08951824707032,91.69498412353515,93.33620824707032,91.49253412353515Q93.58289824707032,91.29007412353516,93.83922824707031,91.09996412353516Q94.09555824707031,90.90986412353516,94.36090824707031,90.73256412353516Q94.62625824707031,90.55526412353515,94.89998824707031,90.39119412353516Q95.17371824707031,90.22712412353516,95.45515824707032,90.07668412353516Q95.73660824707031,89.92625412353516,96.0251082470703,89.78980412353516Q96.31359824707032,89.65335412353515,96.60843824707031,89.53123012353515Q96.90327824707032,89.40910412353516,97.20374824707031,89.30159112353516Q97.50422824707032,89.19407912353516,97.80961824707032,89.10144012353516Q98.1150082470703,89.00880112353515,98.42457824707031,88.93125812353516Q98.73412824707032,88.85371512353515,99.04712824707032,88.79145512353516Q99.3601282470703,88.72919612353516,99.67582824707031,88.68236912353515Q99.9915282470703,88.63554312353516,100.3091282470703,88.60426272353516Q100.62672824707032,88.57298222353515,100.94542824707031,88.55732322353515Q101.2642282470703,88.54166412353516,101.58332824707031,88.54166412353516Q101.90242824707032,88.54166412353516,102.22122824707031,88.55732322353515Q102.5399282470703,88.57298222353515,102.85752824707032,88.60426272353516Q103.17512824707032,88.63554312353516,103.49082824707031,88.68236912353515Q103.80652824707032,88.72919612353516,104.1195282470703,88.79145512353516Q104.43252824707031,88.85371512353515,104.74202824707031,88.93125812353516Q105.05162824707031,89.00880112353515,105.35702824707032,89.10144012353516Q105.66242824707031,89.19407912353516,105.96292824707031,89.30159112353516Q106.26332824707032,89.40910412353516,106.55822824707032,89.53123012353515Q106.85302824707031,89.65335412353515,107.14152824707031,89.78980412353516Q107.43002824707031,89.92625412353516,107.7115282470703,90.07668412353516Q107.99292824707031,90.22712412353516,108.26662824707032,90.39119412353516Q108.54042824707031,90.55526412353515,108.8057282470703,90.73256412353516Q109.0711282470703,90.90986412353516,109.32742824707032,91.09996412353516Q109.58372824707031,91.29007412353516,109.83042824707032,91.49253412353515Q110.0771282470703,91.69498412353515,110.31362824707031,91.90930412353515Q110.55002824707032,92.12361412353516,110.7757282470703,92.34927412353515Q111.00132824707032,92.57493412353516,111.21572824707032,92.81139412353515Q111.43002824707031,93.04786412353516,111.63242824707031,93.29455412353515Q111.83492824707031,93.54124412353515,112.02502824707031,93.79757412353516Q112.21512824707031,94.05390412353516,112.39242824707031,94.31925412353516Q112.56972824707032,94.58460412353516,112.7338282470703,94.85833412353516Q112.89782824707031,95.13205412353516,113.04832824707032,95.41350412353516Q113.1987282470703,95.69495412353515,113.33522824707032,95.98345412353515Q113.47162824707031,96.27194412353515,113.59372824707032,96.56678412353516Q113.71592824707031,96.86162412353515,113.82342824707031,97.16209412353516Q113.93092824707031,97.46257412353515,114.02352824707032,97.76796412353515Q114.11622824707031,98.07335412353515,114.19372824707031,98.38292412353516Q114.27122824707031,98.69246412353516,114.33352824707032,99.00546412353516Q114.39582824707031,99.31846412353515,114.44262824707032,99.63416412353516Q114.48942824707031,99.94986412353515,114.52072824707031,100.26746412353515Q114.55202824707031,100.58506412353516,114.56762824707032,100.90376412353515Q114.58332824707031,101.22256412353515,114.58332824707031,101.54166412353516Z" fill="#FFFFFF" fill-opacity="1"/></g><g><path d="M109,160Q109,160.2455,108.988,160.4907Q108.9759,160.73590000000002,108.95179999999999,160.9802Q108.9278,161.2245,108.8918,161.4673Q108.8557,161.7101,108.8078,161.9509Q108.76,162.1917,108.7003,162.4298Q108.6407,162.6679,108.5694,162.9028Q108.4981,163.1378,108.4154,163.3689Q108.3327,163.6,108.2388,163.8268Q108.1448,164.0536,108.0399,164.2755Q107.9349,164.4975,107.8192,164.714Q107.70349999999999,164.9305,107.57730000000001,165.141Q107.4511,165.3516,107.3147,165.5557Q107.17830000000001,165.7598,107.0321,165.957Q106.8858,166.1542,106.7301,166.3439Q106.5744,166.5337,106.40950000000001,166.7156Q106.24459999999999,166.8975,106.0711,167.0711Q105.89750000000001,167.2446,105.7156,167.4095Q105.5337,167.5744,105.3439,167.7301Q105.1542,167.8858,104.957,168.0321Q104.7598,168.1783,104.5557,168.3147Q104.3516,168.4511,104.141,168.5773Q103.9305,168.7035,103.714,168.8192Q103.4975,168.9349,103.2755,169.0399Q103.0536,169.1448,102.8268,169.2388Q102.6,169.3327,102.3689,169.4154Q102.1378,169.4981,101.9028,169.5694Q101.6679,169.6407,101.4298,169.7003Q101.1917,169.76,100.9509,169.8078Q100.7101,169.8557,100.4673,169.8918Q100.2245,169.9278,99.9802,169.9518Q99.7359,169.9759,99.4907,169.988Q99.24549999999999,170,99,170Q98.75451,170,98.50932,169.988Q98.26413,169.9759,98.01982,169.9518Q97.77552,169.9278,97.53269,169.8918Q97.28986,169.8557,97.04909,169.8078Q96.80832,169.76,96.57019,169.7003Q96.33206,169.6407,96.09715,169.5694Q95.86223,169.4981,95.6311,169.4154Q95.39996,169.3327,95.17316,169.2388Q94.94636,169.1448,94.72444,169.0399Q94.50253000000001,168.9349,94.28603,168.8192Q94.06953,168.7035,93.85897,168.5773Q93.64841,168.4511,93.44429,168.3147Q93.24018,168.1783,93.043,168.0321Q92.84582,167.8858,92.65606,167.7301Q92.4663,167.5744,92.2844,167.4095Q92.10251,167.2446,91.92893,167.0711Q91.75534,166.8975,91.59048,166.7156Q91.42562,166.5337,91.26989,166.3439Q91.11415,166.1542,90.96792,165.957Q90.82168,165.7598,90.6853,165.5557Q90.54891,165.3516,90.42271,165.141Q90.2965,164.9305,90.18078,164.714Q90.06506,164.4975,89.960101,164.2755Q89.855142,164.0536,89.761198,163.8268Q89.667255,163.6,89.584553,163.3689Q89.501851,163.1378,89.43059,162.9028Q89.359329,162.6679,89.299681,162.4298Q89.240033,162.1917,89.192141,161.9509Q89.144249,161.7101,89.108228,161.4673Q89.0722079,161.2245,89.0481461,160.9802Q89.0240842,160.73590000000002,89.0120388,160.4907Q88.99999334162,160.2455,88.99999334162,160Q88.99999334162,159.75451,89.0120388,159.50932Q89.0240842,159.26413,89.0481461,159.01983Q89.0722079,158.77552,89.108228,158.53269Q89.144249,158.28987,89.192141,158.0491Q89.240033,157.80833,89.299681,157.5702Q89.359329,157.33207,89.43059,157.09715Q89.501851,156.86223999999999,89.584553,156.6311Q89.667255,156.39996,89.761198,156.17316Q89.855142,155.94636,89.960101,155.72445Q90.06506,155.50253,90.18078,155.28603Q90.2965,155.06953,90.42271,154.85897Q90.54891,154.64841,90.6853,154.4443Q90.82168,154.24018,90.96792,154.04301Q91.11415,153.84583,91.26989,153.65607Q91.42562,153.4663,91.59048,153.28441Q91.75534,153.10252,91.92893,152.92893Q92.10251,152.75535,92.2844,152.59049Q92.4663,152.42563,92.65606,152.2699Q92.84582,152.11416,93.043,151.96792Q93.24018,151.82169,93.44429,151.6853Q93.64841,151.54892,93.85897,151.42271Q94.06953,151.29651,94.28603,151.18079Q94.50253000000001,151.06507,94.72444,150.960107Q94.94636,150.855148,95.17316,150.761205Q95.39996,150.667261,95.6311,150.584559Q95.86223,150.501857,96.09715,150.430597Q96.33206,150.359336,96.57019,150.299687Q96.80832,150.240039,97.04909,150.192147Q97.28986,150.144255,97.53269,150.108235Q97.77552,150.0722146,98.01982,150.0481527Q98.26413,150.0240909,98.50932,150.0120454Q98.75451,150,99,150Q99.24549999999999,150,99.4907,150.0120454Q99.7359,150.0240909,99.9802,150.0481527Q100.2245,150.0722146,100.4673,150.108235Q100.7101,150.144255,100.9509,150.192147Q101.1917,150.240039,101.4298,150.299687Q101.6679,150.359336,101.9028,150.430597Q102.1378,150.501857,102.3689,150.584559Q102.6,150.667261,102.8268,150.761205Q103.0536,150.855148,103.2755,150.960107Q103.4975,151.06507,103.714,151.18079Q103.9305,151.29651,104.141,151.42271Q104.3516,151.54892,104.5557,151.6853Q104.7598,151.82169,104.957,151.96792Q105.1542,152.11416,105.3439,152.2699Q105.5337,152.42563,105.7156,152.59049Q105.89750000000001,152.75535,106.0711,152.92893Q106.24459999999999,153.10252,106.40950000000001,153.28441Q106.5744,153.4663,106.7301,153.65607Q106.8858,153.84583,107.0321,154.04301Q107.17830000000001,154.24018,107.3147,154.4443Q107.4511,154.64841,107.57730000000001,154.85897Q107.70349999999999,155.06953,107.8192,155.28603Q107.9349,155.50253,108.0399,155.72445Q108.1448,155.94636,108.2388,156.17316Q108.3327,156.39996,108.4154,156.6311Q108.4981,156.86223999999999,108.5694,157.09715Q108.6407,157.33207,108.7003,157.5702Q108.76,157.80833,108.8078,158.0491Q108.8557,158.28987,108.8918,158.53269Q108.9278,158.77552,108.95179999999999,159.01983Q108.9759,159.26413,108.988,159.50932Q109,159.75451,109,160Z" fill="#000000" fill-opacity="1"/><path d="M103.6716,148.94384Q101.4401,148,98.99999,148Q96.55993,148,94.32844,148.94384Q92.17459,149.854843,90.51471,151.51472Q88.854838,153.1746,87.94384,155.32845Q87,157.55994,87,160Q87,162.4401,87.94384,164.6716Q88.854838,166.8254,90.51471,168.4853Q92.17459,170.1452,94.32844,171.0562Q96.55993,172,99,172Q101.4401,172,103.6716,171.0562Q105.8254,170.1452,107.4853,168.4853Q109.1452,166.8254,110.0562,164.6716Q111,162.4401,111,160Q111,157.55994,110.0562,155.32844Q109.1452,153.1746,107.4853,151.51472Q105.8254,149.854844,103.6716,148.94384ZM93.34314,154.34315Q95.68629,152,99,152Q102.3137,152,104.65690000000001,154.34315Q107,156.68628999999999,107,160Q107,163.3137,104.65690000000001,165.6569Q102.3137,168,99,168Q95.68629,168,93.34314,165.6569Q91,163.3137,91,160Q91,156.68628999999999,93.34314,154.34315Z" fill-rule="evenodd" fill="#FFFFFF" fill-opacity="1"/></g></g></svg>